<svg xmlns="http://www.w3.org/2000/svg" xmlns:ev="http://www.w3.org/2001/xml-events" xmlns:xlink="http://www.w3.org/1999/xlink" width="354.331" height="212.598" baseProfile="full" version="1.1"><rect width="354.331" height="212.598" x="0" y="0" fill="#fff" stroke-width="0" opacity="1"/><g><g id="vlines" stroke="#d3d3d3"><line x1="0" x2="0" y1="70.866" y2="177.165"/><text x="3.543" y="67.323" fill="#000" stroke="#000" stroke-width="0" font-family="Verdana" font-size="12">M 29</text><text x="3.543" y="53.15" fill="#000" stroke="#000" stroke-width="0" font-family="Verdana" font-size="16" font-weight="bold">01</text><line x1="35.433" x2="35.433" y1="70.866" y2="177.165"/><text x="38.976" y="67.323" fill="#000" stroke="#000" stroke-width="0" font-family="Verdana" font-size="12">T 30</text><line x1="70.866" x2="70.866" y1="70.866" y2="177.165"/><rect width="7.087" height="106.299" x="85.039" y="70.866" fill="#76e9ff" stroke="#d3d3d3" stroke-width="0" opacity=".8"/><text x="74.409" y="67.323" fill="#000" stroke="#000" stroke-width="0" font-family="Verdana" font-size="12">W 31</text><line x1="106.299" x2="106.299" y1="70.866" y2="177.165"/><rect width="35.433" height="106.299" x="106.299" y="70.866" fill="gray" stroke="#d3d3d3" stroke-width="1" opacity=".7"/><text x="109.843" y="67.323" fill="#000" stroke="#000" stroke-width="0" font-family="Verdana" font-size="12">T 01</text><text x="109.843" y="17.717" fill="#400000" stroke="#400000" stroke-width="0" font-family="Verdana" font-size="20" font-weight="bold">2015</text><text x="109.843" y="35.433" fill="maroon" stroke="maroon" stroke-width="0" font-family="Verdana" font-size="18" font-weight="bold">January</text><line x1="141.732" x2="141.732" y1="70.866" y2="177.165"/><text x="145.276" y="67.323" fill="#000" stroke="#000" stroke-width="0" font-family="Verdana" font-size="12">F 02</text><line x1="177.165" x2="177.165" y1="70.866" y2="177.165"/><rect width="35.433" height="106.299" x="177.165" y="70.866" fill="gray" stroke="#d3d3d3" stroke-width="1" opacity=".7"/><text x="180.709" y="67.323" fill="#000" stroke="#000" stroke-width="0" font-family="Verdana" font-size="12">S 03</text><line x1="212.598" x2="212.598" y1="70.866" y2="177.165"/><rect width="35.433" height="106.299" x="212.598" y="70.866" fill="gray" stroke="#d3d3d3" stroke-width="1" opacity=".7"/><text x="216.142" y="67.323" fill="#000" stroke="#000" stroke-width="0" font-family="Verdana" font-size="12">S 04</text><line x1="248.031" x2="248.031" y1="70.866" y2="177.165"/><text x="251.575" y="67.323" fill="#000" stroke="#000" stroke-width="0" font-family="Verdana" font-size="12">M 05</text><text x="251.575" y="53.15" fill="#000" stroke="#000" stroke-width="0" font-family="Verdana" font-size="16" font-weight="bold">02</text><line x1="283.465" x2="283.465" y1="70.866" y2="177.165"/><text x="287.008" y="67.323" fill="#000" stroke="#000" stroke-width="0" font-family="Verdana" font-size="12">T 06</text><line x1="318.898" x2="318.898" y1="70.866" y2="177.165"/><text x="322.441" y="67.323" fill="#000" stroke="#000" stroke-width="0" font-family="Verdana" font-size="12">W 07</text><line x1="354.331" x2="354.331" y1="70.866" y2="177.165"/></g><g id="hlines" stroke="#d3d3d3"><line x1="0" x2="354.331" y1="70.866" y2="70.866"/><line x1="0" x2="354.331" y1="106.299" y2="106.299"/><line x1="0" x2="354.331" y1="141.732" y2="141.732"/><line x1="0" x2="354.331" y1="177.165" y2="177.165"/></g><line x1="0" x2="354.331" y1="70.866" y2="70.866" stroke="#000"/><line x1="0" x2="354.331" y1="177.165" y2="177.165" stroke="#000"/></g><g><g><text x="10.63" y="95.669" fill="#000" stroke="#000" stroke-width="0" font-family="Verdana" font-size="18">Projet 2</text><rect width="7.087" height="85.039" x="2.835" y="88.583" fill="purple" stroke="#d3d3d3" stroke-width="0" opacity=".5"/><g><g id="tache2"><rect width="311.811" height="28.346" x="3.543" y="109.843" fill="#FFFF40" stroke="#FFFF40" stroke-width="2" opacity=".85"/><rect width="311.811" height="10.63" x="3.543" y="127.559" fill="#909090" stroke="#FFFF40" stroke-width="1" opacity=".2"/><rect width="17.717" height="14.173" x="3.543" y="109.843" fill="#00F" stroke="#FFFF40" stroke-width="1" opacity=".35"/><text x="7.087" y="124.016" fill="#000" stroke="#000" stroke-width="0" font-family="Verdana" font-size="15">tache2</text><text x="7.087" y="136.417" fill="purple" stroke="#000" stroke-width="0" font-family="Verdana" font-size="10">JLS</text></g><g id="tache4"><rect width="205.512" height="28.346" x="145.276" y="145.276" fill="#FFFF40" stroke="#FFFF40" stroke-width="2" opacity=".85"/><rect width="205.512" height="10.63" x="145.276" y="162.992" fill="#909090" stroke="#FFFF40" stroke-width="1" opacity=".2"/><rect width="17.717" height="14.173" x="145.276" y="145.276" fill="#00F" stroke="#FFFF40" stroke-width="1" opacity=".35"/><text x="148.819" y="159.449" fill="#000" stroke="#000" stroke-width="0" font-family="Verdana" font-size="15">tache4</text><text x="148.819" y="171.85" fill="purple" stroke="#000" stroke-width="0" font-family="Verdana" font-size="10">JLS</text></g></g></g></g></svg>