<svg xmlns="http://www.w3.org/2000/svg" xmlns:ev="http://www.w3.org/2001/xml-events" xmlns:xlink="http://www.w3.org/1999/xlink" width="1062.992" height="425.197" baseProfile="full" version="1.1"><rect width="1062.992" height="425.197" x="0" y="0" fill="#fff" stroke-width="0" opacity="1"/><g><g id="vlines" stroke="#d3d3d3"><line x1="0" x2="0" y1="70.866" y2="389.764"/><text x="3.543" y="67.323" fill="#000" stroke="#000" stroke-width="0" font-family="Verdana" font-size="12">T 23</text><line x1="35.433" x2="35.433" y1="70.866" y2="389.764"/><text x="38.976" y="67.323" fill="#000" stroke="#000" stroke-width="0" font-family="Verdana" font-size="12">W 24</text><line x1="70.866" x2="70.866" y1="70.866" y2="389.764"/><rect width="35.433" height="318.898" x="70.866" y="70.866" fill="gray" stroke="#d3d3d3" stroke-width="1" opacity=".7"/><text x="74.409" y="67.323" fill="#000" stroke="#000" stroke-width="0" font-family="Verdana" font-size="12">T 25</text><line x1="106.299" x2="106.299" y1="70.866" y2="389.764"/><text x="109.843" y="67.323" fill="#000" stroke="#000" stroke-width="0" font-family="Verdana" font-size="12">F 26</text><line x1="141.732" x2="141.732" y1="70.866" y2="389.764"/><rect width="35.433" height="318.898" x="141.732" y="70.866" fill="gray" stroke="#d3d3d3" stroke-width="1" opacity=".7"/><text x="145.276" y="67.323" fill="#000" stroke="#000" stroke-width="0" font-family="Verdana" font-size="12">S 27</text><line x1="177.165" x2="177.165" y1="70.866" y2="389.764"/><rect width="35.433" height="318.898" x="177.165" y="70.866" fill="gray" stroke="#d3d3d3" stroke-width="1" opacity=".7"/><text x="180.709" y="67.323" fill="#000" stroke="#000" stroke-width="0" font-family="Verdana" font-size="12">S 28</text><line x1="212.598" x2="212.598" y1="70.866" y2="389.764"/><text x="216.142" y="67.323" fill="#000" stroke="#000" stroke-width="0" font-family="Verdana" font-size="12">M 29</text><text x="216.142" y="53.15" fill="#000" stroke="#000" stroke-width="0" font-family="Verdana" font-size="16" font-weight="bold">01</text><line x1="248.031" x2="248.031" y1="70.866" y2="389.764"/><text x="251.575" y="67.323" fill="#000" stroke="#000" stroke-width="0" font-family="Verdana" font-size="12">T 30</text><line x1="283.465" x2="283.465" y1="70.866" y2="389.764"/><rect width="7.087" height="318.898" x="297.638" y="70.866" fill="#76e9ff" stroke="#d3d3d3" stroke-width="0" opacity=".8"/><text x="287.008" y="67.323" fill="#000" stroke="#000" stroke-width="0" font-family="Verdana" font-size="12">W 31</text><line x1="318.898" x2="318.898" y1="70.866" y2="389.764"/><rect width="35.433" height="318.898" x="318.898" y="70.866" fill="gray" stroke="#d3d3d3" stroke-width="1" opacity=".7"/><text x="322.441" y="67.323" fill="#000" stroke="#000" stroke-width="0" font-family="Verdana" font-size="12">T 01</text><text x="322.441" y="17.717" fill="#400000" stroke="#400000" stroke-width="0" font-family="Verdana" font-size="20" font-weight="bold">2015</text><text x="322.441" y="35.433" fill="maroon" stroke="maroon" stroke-width="0" font-family="Verdana" font-size="18" font-weight="bold">January</text><line x1="354.331" x2="354.331" y1="70.866" y2="389.764"/><text x="357.874" y="67.323" fill="#000" stroke="#000" stroke-width="0" font-family="Verdana" font-size="12">F 02</text><line x1="389.764" x2="389.764" y1="70.866" y2="389.764"/><rect width="35.433" height="318.898" x="389.764" y="70.866" fill="gray" stroke="#d3d3d3" stroke-width="1" opacity=".7"/><text x="393.307" y="67.323" fill="#000" stroke="#000" stroke-width="0" font-family="Verdana" font-size="12">S 03</text><line x1="425.197" x2="425.197" y1="70.866" y2="389.764"/><rect width="35.433" height="318.898" x="425.197" y="70.866" fill="gray" stroke="#d3d3d3" stroke-width="1" opacity=".7"/><text x="428.74" y="67.323" fill="#000" stroke="#000" stroke-width="0" font-family="Verdana" font-size="12">S 04</text><line x1="460.63" x2="460.63" y1="70.866" y2="389.764"/><text x="464.173" y="67.323" fill="#000" stroke="#000" stroke-width="0" font-family="Verdana" font-size="12">M 05</text><text x="464.173" y="53.15" fill="#000" stroke="#000" stroke-width="0" font-family="Verdana" font-size="16" font-weight="bold">02</text><line x1="496.063" x2="496.063" y1="70.866" y2="389.764"/><text x="499.606" y="67.323" fill="#000" stroke="#000" stroke-width="0" font-family="Verdana" font-size="12">T 06</text><line x1="531.496" x2="531.496" y1="70.866" y2="389.764"/><text x="535.039" y="67.323" fill="#000" stroke="#000" stroke-width="0" font-family="Verdana" font-size="12">W 07</text><line x1="566.929" x2="566.929" y1="70.866" y2="389.764"/><text x="570.472" y="67.323" fill="#000" stroke="#000" stroke-width="0" font-family="Verdana" font-size="12">T 08</text><line x1="602.362" x2="602.362" y1="70.866" y2="389.764"/><text x="605.905" y="67.323" fill="#000" stroke="#000" stroke-width="0" font-family="Verdana" font-size="12">F 09</text><line x1="637.795" x2="637.795" y1="70.866" y2="389.764"/><rect width="35.433" height="318.898" x="637.795" y="70.866" fill="gray" stroke="#d3d3d3" stroke-width="1" opacity=".7"/><text x="641.339" y="67.323" fill="#000" stroke="#000" stroke-width="0" font-family="Verdana" font-size="12">S 10</text><line x1="673.228" x2="673.228" y1="70.866" y2="389.764"/><rect width="35.433" height="318.898" x="673.228" y="70.866" fill="gray" stroke="#d3d3d3" stroke-width="1" opacity=".7"/><text x="676.772" y="67.323" fill="#000" stroke="#000" stroke-width="0" font-family="Verdana" font-size="12">S 11</text><line x1="708.661" x2="708.661" y1="70.866" y2="389.764"/><text x="712.205" y="67.323" fill="#000" stroke="#000" stroke-width="0" font-family="Verdana" font-size="12">M 12</text><text x="712.205" y="53.15" fill="#000" stroke="#000" stroke-width="0" font-family="Verdana" font-size="16" font-weight="bold">03</text><line x1="744.094" x2="744.094" y1="70.866" y2="389.764"/><rect width="35.433" height="318.898" x="744.094" y="70.866" fill="gray" stroke="#d3d3d3" stroke-width="1" opacity=".7"/><text x="747.638" y="67.323" fill="#000" stroke="#000" stroke-width="0" font-family="Verdana" font-size="12">T 13</text><line x1="779.528" x2="779.528" y1="70.866" y2="389.764"/><text x="783.071" y="67.323" fill="#000" stroke="#000" stroke-width="0" font-family="Verdana" font-size="12">W 14</text><line x1="814.961" x2="814.961" y1="70.866" y2="389.764"/><text x="818.504" y="67.323" fill="#000" stroke="#000" stroke-width="0" font-family="Verdana" font-size="12">T 15</text><line x1="850.394" x2="850.394" y1="70.866" y2="389.764"/><text x="853.937" y="67.323" fill="#000" stroke="#000" stroke-width="0" font-family="Verdana" font-size="12">F 16</text><line x1="885.827" x2="885.827" y1="70.866" y2="389.764"/><rect width="35.433" height="318.898" x="885.827" y="70.866" fill="gray" stroke="#d3d3d3" stroke-width="1" opacity=".7"/><text x="889.37" y="67.323" fill="#000" stroke="#000" stroke-width="0" font-family="Verdana" font-size="12">S 17</text><line x1="921.26" x2="921.26" y1="70.866" y2="389.764"/><rect width="35.433" height="318.898" x="921.26" y="70.866" fill="gray" stroke="#d3d3d3" stroke-width="1" opacity=".7"/><text x="924.803" y="67.323" fill="#000" stroke="#000" stroke-width="0" font-family="Verdana" font-size="12">S 18</text><line x1="956.693" x2="956.693" y1="70.866" y2="389.764"/><text x="960.236" y="67.323" fill="#000" stroke="#000" stroke-width="0" font-family="Verdana" font-size="12">M 19</text><text x="960.236" y="53.15" fill="#000" stroke="#000" stroke-width="0" font-family="Verdana" font-size="16" font-weight="bold">04</text><line x1="992.126" x2="992.126" y1="70.866" y2="389.764"/><text x="995.669" y="67.323" fill="#000" stroke="#000" stroke-width="0" font-family="Verdana" font-size="12">T 20</text><line x1="1027.559" x2="1027.559" y1="70.866" y2="389.764"/><text x="1031.102" y="67.323" fill="#000" stroke="#000" stroke-width="0" font-family="Verdana" font-size="12">W 21</text><line x1="1062.992" x2="1062.992" y1="70.866" y2="389.764"/></g><g id="hlines" stroke="#d3d3d3"><line x1="0" x2="1062.992" y1="70.866" y2="70.866"/><line x1="0" x2="1062.992" y1="106.299" y2="106.299"/><line x1="0" x2="1062.992" y1="141.732" y2="141.732"/><line x1="0" x2="1062.992" y1="177.165" y2="177.165"/><line x1="0" x2="1062.992" y1="212.598" y2="212.598"/><line x1="0" x2="1062.992" y1="248.031" y2="248.031"/><line x1="0" x2="1062.992" y1="283.465" y2="283.465"/><line x1="0" x2="1062.992" y1="318.898" y2="318.898"/><line x1="0" x2="1062.992" y1="354.331" y2="354.331"/><line x1="0" x2="1062.992" y1="389.764" y2="389.764"/></g><line x1="0" x2="1062.992" y1="70.866" y2="70.866" stroke="#000"/><line x1="0" x2="1062.992" y1="389.764" y2="389.764" stroke="#000"/></g><g><line x1="0" x2="1062.992" y1="70.866" y2="70.866" stroke="#000"/><g id="tache1"><rect width="205.512" height="28.346" x="109.843" y="109.843" fill="#FF8080" stroke="#FF8080" stroke-width="2" opacity=".85"/><rect width="205.512" height="10.63" x="109.843" y="127.559" fill="#909090" stroke="#FF8080" stroke-width="1" opacity=".2"/><rect width="17.717" height="14.173" x="109.843" y="109.843" fill="#00F" stroke="#FF8080" stroke-width="1" opacity=".35"/><rect width="90.425" height="10.63" x="109.843" y="127.559" fill="#F08000" stroke="#FF8080" stroke-width="1" opacity=".35"/><text x="113.386" y="124.016" fill="#000" stroke="#000" stroke-width="0" font-family="Verdana" font-size="15">tache1</text><text x="113.386" y="136.417" fill="purple" stroke="#000" stroke-width="0" font-family="Verdana" font-size="10">ANO</text></g><g id="tache8"><rect width="134.646" height="28.346" x="499.606" y="145.276" fill="#FFFF90" stroke="#FFFF90" stroke-width="2" opacity=".85"/><rect width="134.646" height="10.63" x="499.606" y="162.992" fill="#909090" stroke="#FFFF90" stroke-width="1" opacity=".2"/><rect width="17.717" height="14.173" x="499.606" y="145.276" fill="#00F" stroke="#FFFF90" stroke-width="1" opacity=".35"/><text x="503.15" y="159.449" fill="#000" stroke="#000" stroke-width="0" font-family="Verdana" font-size="15">tache8</text><text x="503.15" y="171.85" fill="purple" stroke="#000" stroke-width="0" font-family="Verdana" font-size="10">ANO / JLS</text></g><g id="tache6"><rect width="134.646" height="28.346" x="499.606" y="180.709" fill="#FFFF90" stroke="#FFFF90" stroke-width="2" opacity=".85"/><rect width="134.646" height="10.63" x="499.606" y="198.425" fill="#909090" stroke="#FFFF90" stroke-width="1" opacity=".2"/><rect width="17.717" height="14.173" x="499.606" y="180.709" fill="#00F" stroke="#FFFF90" stroke-width="1" opacity=".35"/><text x="503.15" y="194.882" fill="#000" stroke="#000" stroke-width="0" font-family="Verdana" font-size="15">tache6</text><text x="503.15" y="207.283" fill="purple" stroke="#000" stroke-width="0" font-family="Verdana" font-size="10">ANO</text></g><g><text x="10.63" y="95.669" fill="#000" stroke="#000" stroke-width="0" font-family="Verdana" font-size="18">ANO</text></g><g><rect width="14.173" height="28.346" x="216.142" y="74.409" fill="green" stroke="green" stroke-width="1" opacity=".65"/><rect width="14.173" height="28.346" x="251.575" y="74.409" fill="green" stroke="green" stroke-width="1" opacity=".65"/><rect width="14.173" height="28.346" x="287.008" y="74.409" fill="green" stroke="green" stroke-width="1" opacity=".65"/><rect width="14.173" height="28.346" x="357.874" y="74.409" fill="green" stroke="green" stroke-width="1" opacity=".65"/><rect width="14.173" height="28.346" x="499.606" y="74.409" fill="green" stroke="green" stroke-width="1" opacity=".65"/><rect width="14.173" height="28.346" x="535.039" y="74.409" fill="green" stroke="green" stroke-width="1" opacity=".65"/><rect width="14.173" height="28.346" x="570.472" y="74.409" fill="green" stroke="green" stroke-width="1" opacity=".65"/></g><g><rect width="14.173" height="28.346" x="513.78" y="74.409" fill="#A00" stroke="#A00" stroke-width="1" opacity=".65"/><rect width="14.173" height="28.346" x="549.213" y="74.409" fill="#A00" stroke="#A00" stroke-width="1" opacity=".65"/><rect width="14.173" height="28.346" x="584.646" y="74.409" fill="#A00" stroke="#A00" stroke-width="1" opacity=".65"/><rect width="14.173" height="28.346" x="620.079" y="74.409" fill="#A00" stroke="#A00" stroke-width="1" opacity=".65"/></g><line x1="0" x2="1062.992" y1="212.598" y2="212.598" stroke="#000"/><g id="tache2"><rect width="311.811" height="28.346" x="216.142" y="251.575" fill="#FFFF90" stroke="#FFFF90" stroke-width="2" opacity=".85"/><rect width="311.811" height="10.63" x="216.142" y="269.291" fill="#909090" stroke="#FFFF90" stroke-width="1" opacity=".2"/><rect width="17.717" height="14.173" x="216.142" y="251.575" fill="#00F" stroke="#FFFF90" stroke-width="1" opacity=".35"/><text x="219.685" y="265.748" fill="#000" stroke="#000" stroke-width="0" font-family="Verdana" font-size="15">tache2</text><text x="219.685" y="278.15" fill="purple" stroke="#000" stroke-width="0" font-family="Verdana" font-size="10">JLS</text></g><g id="tache3"><rect width="205.512" height="28.346" x="535.039" y="287.008" fill="#FFFF90" stroke="#FFFF90" stroke-width="2" opacity=".85"/><rect width="205.512" height="10.63" x="535.039" y="304.724" fill="#909090" stroke="#FFFF90" stroke-width="1" opacity=".2"/><rect width="17.717" height="14.173" x="535.039" y="287.008" fill="#00F" stroke="#FFFF90" stroke-width="1" opacity=".35"/><text x="538.583" y="301.181" fill="#000" stroke="#000" stroke-width="0" font-family="Verdana" font-size="15">tache3</text><text x="538.583" y="313.583" fill="purple" stroke="#000" stroke-width="0" font-family="Verdana" font-size="10">JLS</text></g><g id="tache8"><rect width="134.646" height="28.346" x="499.606" y="322.441" fill="#FFFF90" stroke="#FFFF90" stroke-width="2" opacity=".85"/><rect width="134.646" height="10.63" x="499.606" y="340.157" fill="#909090" stroke="#FFFF90" stroke-width="1" opacity=".2"/><rect width="17.717" height="14.173" x="499.606" y="322.441" fill="#00F" stroke="#FFFF90" stroke-width="1" opacity=".35"/><text x="503.15" y="336.614" fill="#000" stroke="#000" stroke-width="0" font-family="Verdana" font-size="15">tache8</text><text x="503.15" y="349.016" fill="purple" stroke="#000" stroke-width="0" font-family="Verdana" font-size="10">ANO / JLS</text></g><g id="tache4"><rect width="205.512" height="28.346" x="357.874" y="357.874" fill="#FFFF90" stroke="#FFFF90" stroke-width="2" opacity=".85"/><rect width="205.512" height="10.63" x="357.874" y="375.591" fill="#909090" stroke="#FFFF90" stroke-width="1" opacity=".2"/><rect width="17.717" height="14.173" x="357.874" y="357.874" fill="#00F" stroke="#FFFF90" stroke-width="1" opacity=".35"/><text x="361.417" y="372.047" fill="#000" stroke="#000" stroke-width="0" font-family="Verdana" font-size="15">tache4</text><text x="361.417" y="384.449" fill="purple" stroke="#000" stroke-width="0" font-family="Verdana" font-size="10">JLS</text></g><g><text x="10.63" y="237.402" fill="#000" stroke="#000" stroke-width="0" font-family="Verdana" font-size="18">JLS</text></g><g><rect width="14.173" height="28.346" x="372.047" y="216.142" fill="#A00" stroke="#A00" stroke-width="1" opacity=".65"/><rect width="14.173" height="28.346" x="478.346" y="216.142" fill="#A00" stroke="#A00" stroke-width="1" opacity=".65"/><rect width="14.173" height="28.346" x="513.78" y="216.142" fill="#A00" stroke="#A00" stroke-width="1" opacity=".65"/><rect width="14.173" height="28.346" x="549.213" y="216.142" fill="#A00" stroke="#A00" stroke-width="1" opacity=".65"/><rect width="14.173" height="28.346" x="584.646" y="216.142" fill="#A00" stroke="#A00" stroke-width="1" opacity=".65"/><rect width="14.173" height="28.346" x="620.079" y="216.142" fill="#A00" stroke="#A00" stroke-width="1" opacity=".65"/></g><line x1="0" x2="1062.992" y1="389.764" y2="389.764" stroke="#000"/></g></svg>